<?xml version="1.0" encoding="utf-8"?>
<!-- Generator: Adobe Illustrator 16.0.0, SVG Export Plug-In . SVG Version: 6.00 Build 0)  -->
<!DOCTYPE svg PUBLIC "-//W3C//DTD SVG 1.1//EN" "http://www.w3.org/Graphics/SVG/1.1/DTD/svg11.dtd">
<svg version="1.1" id="Layer_1" xmlns="http://www.w3.org/2000/svg" xmlns:xlink="http://www.w3.org/1999/xlink" x="0px" y="0px"
	 width="1792px" height="1792px" viewBox="0 0 1792 1792" enable-background="new 0 0 1792 1792" xml:space="preserve">
<path fill="#FFFFFF" d="M1490,1322c0,26.667-9.333,49.333-28,68l-136,136c-18.667,18.667-41.333,28-68,28s-49.333-9.333-68-28
	l-294-294l-294,294c-18.667,18.667-41.333,28-68,28s-49.333-9.333-68-28l-136-136c-18.667-18.667-28-41.333-28-68
	s9.333-49.333,28-68l294-294L330,666c-18.667-18.667-28-41.333-28-68s9.333-49.333,28-68l136-136c18.667-18.667,41.333-28,68-28
	s49.333,9.333,68,28l294,294l294-294c18.667-18.667,41.333-28,68-28s49.333,9.333,68,28l136,136c18.667,18.667,28,41.333,28,68
	s-9.333,49.333-28,68l-294,294l294,294C1480.667,1272.667,1490,1295.333,1490,1322z"/>
</svg>
